<svg width="22" height="17" viewBox="0 0 22 17" fill="none" xmlns="http://www.w3.org/2000/svg">
<path d="M3.5018 14H2.70758C1.95307 14 1 13.0545 1 12.3061V2.02424C1 1.27576 1.95307 1 2.70758 1H10.9675C11.722 1 12 1.27576 12 2.02424V10.5727" stroke="#0084E3" stroke-width="2" stroke-miterlimit="10" stroke-linecap="round" stroke-linejoin="round"/>
<path d="M14 14H9" stroke="#0084E3" stroke-width="2" stroke-miterlimit="10" stroke-linecap="round" stroke-linejoin="round"/>
<path d="M11.9701 3.5H17.5001L20.9912 8C20.9912 8 20.9912 12 20.9912 12.7037C20.9912 13.4074 21.1503 14 20.1159 14C19.9568 14 19.1611 14 19.1611 14" stroke="#0084E3" stroke-width="2" stroke-miterlimit="10" stroke-linecap="round" stroke-linejoin="round"/>
<path d="M6.5 16C7.88071 16 9 14.8807 9 13.5C9 12.1193 7.88071 11 6.5 11C5.11929 11 4 12.1193 4 13.5C4 14.8807 5.11929 16 6.5 16Z" stroke="#0084E3" stroke-width="2" stroke-miterlimit="10" stroke-linecap="round" stroke-linejoin="round"/>
<path d="M16.5 16C17.8807 16 19 14.8807 19 13.5C19 12.1193 17.8807 11 16.5 11C15.1193 11 14 12.1193 14 13.5C14 14.8807 15.1193 16 16.5 16Z" stroke="#0084E3" stroke-width="2" stroke-miterlimit="10" stroke-linecap="round" stroke-linejoin="round"/>
</svg>
