<svg width="19" height="26" viewBox="0 0 19 26" fill="none" xmlns="http://www.w3.org/2000/svg">
<path d="M18.9999 22.3233V22.0606C18.9999 21.2727 18.2296 20.2222 17.4593 19.697L14.8918 18.1212C14.1215 17.596 13.0945 17.8586 12.3242 18.1212L11.0404 18.9091C7.44583 17.0707 5.13502 13.394 4.87826 9.19194L6.16204 8.40406C6.93231 7.87881 7.44583 6.8283 7.44583 6.04042V2.88891C7.44583 2.10103 6.93231 1.05052 6.16204 0.52527L5.64853 0.262644C5.13502 1.7263e-05 3.85123 1.7263e-05 3.08096 0.262644L1.28366 1.57578C1.02691 1.8384 0.513395 2.62628 0.513395 2.62628C-0.770389 7.61618 -0.000118904 13.1313 2.82421 17.3334C5.39177 21.798 9.75664 24.9495 14.635 26C14.635 26 15.4053 26 15.9188 25.7374L17.9729 24.6869C18.4864 24.1616 18.9999 23.1111 18.9999 22.3233Z" fill="#313131"/>
</svg>
