<svg width="9" height="12" viewBox="0 0 9 12" fill="none" xmlns="http://www.w3.org/2000/svg">
<path d="M8.99981 10.303V10.1818C8.99981 9.81815 8.63495 9.3333 8.27008 9.09088L7.05387 8.36361C6.689 8.12118 6.20252 8.2424 5.83765 8.36361L5.22954 8.72724C3.52684 7.87876 2.43225 6.18179 2.31063 4.24239L2.91873 3.87876C3.2836 3.63633 3.52684 3.15149 3.52684 2.78785V1.3333C3.52684 0.969668 3.2836 0.484819 2.91873 0.242395L2.67549 0.121183C2.43225 -2.95956e-05 1.82414 -2.95956e-05 1.45927 0.121183L0.607923 0.727243C0.486302 0.848455 0.243058 1.21209 0.243058 1.21209C-0.36505 3.51512 -0.000184823 6.06058 1.33765 7.99997C2.55387 10.0606 4.62144 11.5151 6.93225 12C6.93225 12 7.29711 12 7.54035 11.8788L8.51333 11.3939C8.75657 11.1515 8.99981 10.6666 8.99981 10.303Z" fill="white"/>
</svg>
