<svg width="25" height="25" viewBox="0 0 25 25" fill="none" xmlns="http://www.w3.org/2000/svg">
<path d="M25 1.36156e-05V19.6017C24.2691 22.7598 21.3907 25 18.0625 25H0V5.11422C0.685875 2.12 3.41813 0 6.56641 0L25 1.36156e-05Z" fill="#0084E3"/>
<path d="M3.45391 16.4898V9.5898C4.40057 9.5298 5.29391 9.4998 6.13391 9.4998C7.23391 9.4998 7.99724 9.75313 8.42391 10.2598C8.85724 10.7665 9.07391 11.6931 9.07391 13.0398C9.07391 14.3865 8.85724 15.3131 8.42391 15.8198C7.99724 16.3265 7.23391 16.5798 6.13391 16.5798C5.29391 16.5798 4.40057 16.5498 3.45391 16.4898ZM4.97391 10.6998V15.3698C5.08724 15.3698 5.27057 15.3731 5.52391 15.3798C5.78391 15.3798 5.98724 15.3798 6.13391 15.3798C6.64724 15.3798 6.99724 15.2165 7.18391 14.8898C7.37724 14.5631 7.47391 13.9465 7.47391 13.0398C7.47391 12.1331 7.37724 11.5165 7.18391 11.1898C6.99724 10.8565 6.64724 10.6898 6.13391 10.6898L4.97391 10.6998ZM10.6608 10.2298C11.0941 9.71647 11.8641 9.4598 12.9708 9.4598C14.0774 9.4598 14.8474 9.71647 15.2808 10.2298C15.7141 10.7365 15.9308 11.6731 15.9308 13.0398C15.9308 14.4065 15.7141 15.3465 15.2808 15.8598C14.8474 16.3665 14.0774 16.6198 12.9708 16.6198C11.8641 16.6198 11.0941 16.3665 10.6608 15.8598C10.2341 15.3465 10.0208 14.4065 10.0208 13.0398C10.0208 11.6731 10.2341 10.7365 10.6608 10.2298ZM14.0308 11.1798C13.8441 10.8531 13.4908 10.6898 12.9708 10.6898C12.4508 10.6898 12.0941 10.8531 11.9008 11.1798C11.7141 11.5065 11.6208 12.1265 11.6208 13.0398C11.6208 13.9531 11.7141 14.5731 11.9008 14.8998C12.0941 15.2265 12.4508 15.3898 12.9708 15.3898C13.4908 15.3898 13.8441 15.2265 14.0308 14.8998C14.2241 14.5731 14.3208 13.9531 14.3208 13.0398C14.3208 12.1265 14.2241 11.5065 14.0308 11.1798ZM21.8367 15.1998L21.9667 16.3298C21.3667 16.5165 20.6301 16.6098 19.7567 16.6098C18.6901 16.6098 17.9401 16.3431 17.5067 15.8098C17.0734 15.2765 16.8567 14.3531 16.8567 13.0398C16.8567 11.7265 17.0734 10.8031 17.5067 10.2698C17.9401 9.73647 18.6901 9.4698 19.7567 9.4698C20.5301 9.4698 21.2201 9.54647 21.8267 9.6998L21.6967 10.8398C21.1567 10.8065 20.5101 10.7898 19.7567 10.7898C19.2567 10.7898 18.9134 10.9498 18.7267 11.2698C18.5467 11.5831 18.4567 12.1731 18.4567 13.0398C18.4567 13.9065 18.5467 14.4998 18.7267 14.8198C18.9134 15.1331 19.2567 15.2898 19.7567 15.2898C20.6834 15.2898 21.3767 15.2598 21.8367 15.1998Z" fill="white"/>
</svg>
