<svg width="25" height="25" viewBox="0 0 25 25" fill="none" xmlns="http://www.w3.org/2000/svg">
<path d="M25 1.36156e-05V19.6017C24.2691 22.7598 21.3907 25 18.0625 25H0V5.11422C0.685875 2.12 3.41813 0 6.56641 0L25 1.36156e-05Z" fill="#13CA1B"/>
<path d="M9.04488 15.2998L9.11488 16.4198C8.48822 16.4865 7.42155 16.5198 5.91488 16.5198C5.45488 16.5198 5.08822 16.3965 4.81488 16.1498C4.54155 15.8965 4.40155 15.5565 4.39488 15.1298V10.9498C4.40155 10.5231 4.54155 10.1865 4.81488 9.93981C5.08822 9.68647 5.45488 9.55981 5.91488 9.55981C7.42155 9.55981 8.48822 9.59314 9.11488 9.65981L9.04488 10.7898H6.39488C6.22822 10.7898 6.10822 10.8298 6.03488 10.9098C5.96155 10.9898 5.92488 11.1198 5.92488 11.2998V12.3498H8.67488V13.4498H5.92488V14.7798C5.92488 14.9665 5.96155 15.0998 6.03488 15.1798C6.10822 15.2598 6.22822 15.2998 6.39488 15.2998H9.04488ZM12.7766 13.4198H12.6566L11.1866 16.4898H9.6166L11.4166 12.9498L9.7566 9.58981H11.3166L12.6466 12.4398H12.7966L14.1266 9.58981H15.6866L14.0266 12.9498L15.8266 16.4898H14.2466L12.7766 13.4198ZM18.1229 9.58981V14.7398C18.1229 14.9198 18.1629 15.0498 18.2429 15.1298C18.3295 15.2098 18.4695 15.2498 18.6629 15.2498H21.0329L21.1029 16.4098C20.4295 16.4831 19.4562 16.5198 18.1829 16.5198C17.6495 16.5198 17.2529 16.3865 16.9929 16.1198C16.7329 15.8531 16.6029 15.4965 16.6029 15.0498V9.58981H18.1229Z" fill="white"/>
</svg>
