<svg width="240" height="89" viewBox="0 0 240 89" fill="none" xmlns="http://www.w3.org/2000/svg">
<g clip-path="url(#clip0)">
<path d="M240 0L228.065 53.2722C226.182 61.6439 218.767 67.5824 210.192 67.5824H4.14258L16.2802 13.557C18.0472 5.61979 25.0865 0 33.1975 0H240Z" fill="url(#paint0_linear)"/>
<path opacity="0.1" d="M154.429 11.2106H154.052L133.427 37.0211L124.476 11.1816H113.178L102.75 56.4586H115.09L120.305 33.3132L124.128 45.3349H140.553L147.824 36.0652L143.045 56.4586H154.4L164.915 11.2106H164.336H154.429Z" fill="#313131"/>
<path opacity="0.1" d="M183.571 11.1816C179.254 11.1816 174.301 14.7737 173.345 18.974L164.712 56.4587H177.082L180.152 43.481L207.324 43.51L204.167 56.4876H208.976H216.362L226.791 11.2106H183.571V11.1816ZM182.673 32.7628L185.048 22.624H213.118L210.743 32.7628H182.673Z" fill="#313131"/>
<path opacity="0.1" d="M59.6744 11.0947C55.3581 11.0947 51.3895 14.6288 50.4046 18.8582L47.2181 32.7628H36.0365L41.1638 11.1237H29.6635L19.1191 56.3428H30.5615L33.5742 43.452H40.5555L46.0594 37.6584L44.7558 43.452L44.4082 44.9583C43.0757 50.7809 47.4788 56.3428 53.4462 56.3428H85.0214C89.3376 56.3428 93.1034 53.3591 94.0884 49.1297L102.924 11.0947H59.6744ZM83.6019 45.2191H55.5609L60.949 22.653H88.8741L83.6019 45.2191Z" fill="#313131"/>
<path d="M153.328 11.2107H152.951L132.558 36.4418L123.462 11.2107H113.149L102.866 55.8794H114.221L119.435 32.7339L123.925 44.7557H139.684L146.955 35.4859L142.175 55.8794H153.531L163.814 11.2107H163.235H153.328Z" fill="white"/>
<path d="M182.528 11.2107C178.211 11.2107 174.446 14.1944 173.461 18.4237L164.828 55.9083H176.155L179.225 42.9307L207.411 42.9596L204.254 55.9373H208.048H215.435L225.719 11.2686H182.528V11.2107ZM181.803 32.1835L184.179 22.0447H212.249L209.873 32.1835H181.803Z" fill="white"/>
<path d="M8.57474 80.4442H3.24463L1.999 85.8323H7.32912L7.76364 84.0073L9.64656 84.4129L9.41481 85.4267C9.241 86.2089 8.98029 86.7303 8.63268 87.02C8.25609 87.3097 7.67673 87.4545 6.86563 87.4545H1.76726C0.956152 87.4545 0.434728 87.3097 0.174016 87.02C-0.0577279 86.7303 -0.0577279 86.2089 0.11608 85.4267L1.15893 80.9367C1.33274 80.1835 1.59345 79.6331 1.94106 79.3435C2.31765 79.0538 2.89701 78.9089 3.70811 78.9089H8.77752C9.58862 78.9089 10.11 79.0538 10.3708 79.3435C10.6025 79.6331 10.6025 80.1546 10.4287 80.9367L10.2549 81.7478L8.19816 82.0664L8.57474 80.4442Z" fill="#313131"/>
<path d="M12.7461 87.4544L14.2524 80.9656L14.7159 78.9668H22.1897H24.3043L22.3345 87.4834H20.3647L21.9579 80.589H16.3092L14.7159 87.4834H12.7461V87.4544Z" fill="#313131"/>
<path d="M26.332 87.4546L28.3019 78.938H36.9923L36.6446 80.3864H29.9241L29.4895 82.2983H33.4002L33.0526 83.7467H29.1419L28.6495 85.8613H35.457L35.0804 87.4546H26.332Z" fill="#313131"/>
<path d="M43.0469 78.9379L41.4536 85.8323H47.1024L48.6956 78.9379H50.6655L49.0722 85.8323H50.8972L50.2309 88.7001H48.406L48.6956 87.4255H46.0885H41.2219C40.4108 87.4255 39.8894 87.2807 39.6576 86.991C39.4259 86.7013 39.3969 86.1799 39.5707 85.3978L41.0771 78.9089H43.0469V78.9379Z" fill="#313131"/>
<path d="M55.9665 80.9367C56.1404 80.1546 56.4011 79.6331 56.7487 79.3435C57.1253 79.0538 57.7046 78.9089 58.5447 78.9089H64.8018C65.6129 78.9089 66.1343 79.0538 66.3661 79.3435C66.5978 79.6331 66.6268 80.1546 66.453 80.9367L65.4101 85.4267C65.2363 86.2089 64.9466 86.7303 64.599 87.02C64.2514 87.3097 63.6431 87.4545 62.832 87.4545H56.5749C55.7638 87.4545 55.2423 87.3097 54.9816 87.02C54.7499 86.7303 54.7499 86.2089 54.9237 85.4267L55.9665 80.9367ZM56.8066 85.8323H63.3244L64.57 80.4442H58.0522L56.8066 85.8323Z" fill="#313131"/>
<path d="M68.6543 87.4544L69.0309 85.8612H70.1317L70.769 83.1672C71.0876 81.8057 71.7249 80.7918 72.7098 80.0676C73.7237 79.3434 74.9983 78.9668 76.5626 78.9668H82.0375L80.4443 85.8612H81.5161L81.1395 87.4544H68.6543ZM79.7201 80.4442H76.215C75.3169 80.4442 74.5638 80.6759 73.9554 81.1104C73.3471 81.5739 72.9416 82.2402 72.7388 83.0802L72.1015 85.8033H78.4745L79.7201 80.4442Z" fill="#313131"/>
<path d="M84.4131 87.4546L86.3829 78.938H95.0733L94.7257 80.3864H88.0051L87.5706 82.2983H91.4813L91.1337 83.7467H87.223L86.7305 85.8613H93.567L93.1904 87.4546H84.4131Z" fill="#313131"/>
<path d="M104.633 87.4544L105.502 83.7175L99.5921 87.4544H96.3477L103.763 82.9644L99.0127 78.9668H101.881L105.762 82.5009L106.573 78.9668H108.572L107.761 82.5009L113.294 78.9668H116.162L109.615 82.9644L114.916 87.4544H111.73L107.471 83.6886L106.602 87.4255H104.633V87.4544Z" fill="#313131"/>
<path d="M117.9 87.4544L118.276 85.8612H119.377L120.015 83.1672C120.333 81.8057 120.971 80.7918 121.955 80.0676C122.969 79.3434 124.244 78.9668 125.808 78.9668H131.283L129.69 85.8612H130.762L130.385 87.4544H117.9ZM128.966 80.4442H125.461C124.563 80.4442 123.809 80.6759 123.201 81.1104C122.593 81.5739 122.187 82.2402 121.984 83.0802L121.347 85.8033H127.72L128.966 80.4442Z" fill="#313131"/>
<path d="M133.166 87.4546L139.916 78.938H141.827L144.753 87.4546H142.523L141.943 85.6006H136.555L135.136 87.4546H133.166ZM137.772 84.0364H141.48L140.437 80.5892L137.772 84.0364Z" fill="#313131"/>
<path d="M155.298 80.9367C155.471 80.1546 155.732 79.6331 156.08 79.3435C156.456 79.0538 157.036 78.9089 157.876 78.9089H164.133C164.944 78.9089 165.465 79.0538 165.697 79.3435C165.929 79.6331 165.958 80.1546 165.784 80.9367L164.741 85.4267C164.567 86.2089 164.278 86.7303 163.93 87.02C163.582 87.3097 162.974 87.4545 162.163 87.4545H155.906C155.095 87.4545 154.573 87.3097 154.313 87.02C154.081 86.7303 154.081 86.2089 154.255 85.4267L155.298 80.9367ZM156.138 85.8323H162.655L163.901 80.4442H157.383L156.138 85.8323Z" fill="#313131"/>
<path d="M168.391 87.4544L169.897 80.9656L170.361 78.9668H177.835H179.949L177.98 87.4834H176.01L177.603 80.589H171.954L170.361 87.4834H168.391V87.4544Z" fill="#313131"/>
<path d="M188.959 80.4443L187.336 87.4256H185.367L186.989 80.4443H183.078L183.426 78.938H193.217L192.869 80.4443H188.959Z" fill="#313131"/>
<path d="M195.65 80.9367C195.824 80.1546 196.085 79.6331 196.432 79.3435C196.809 79.0538 197.388 78.9089 198.228 78.9089H204.485C205.296 78.9089 205.818 79.0538 206.05 79.3435C206.281 79.6331 206.31 80.1546 206.137 80.9367L205.094 85.4267C204.92 86.2089 204.63 86.7303 204.283 87.02C203.935 87.3097 203.327 87.4545 202.516 87.4545H196.258C195.447 87.4545 194.926 87.3097 194.665 87.02C194.433 86.7303 194.433 86.2089 194.607 85.4267L195.65 80.9367ZM196.49 85.8323H203.008L204.254 80.4442H197.736L196.49 85.8323Z" fill="#313131"/>
<path d="M208.599 87.4546L210.568 78.938H212.162L214.972 84.0653L220.07 78.938H221.663L219.693 87.4546H217.868L219.085 82.1824C219.114 82.0376 219.143 81.8927 219.201 81.8058C219.259 81.661 219.288 81.4872 219.375 81.2844C219.288 81.3713 219.23 81.4872 219.172 81.5741C219.114 81.661 219.056 81.7479 218.998 81.8348C218.853 82.0086 218.766 82.1245 218.708 82.1824L214.537 86.4407H214.074L211.872 82.1824C211.814 82.0665 211.756 81.9217 211.669 81.7189C211.611 81.5451 211.553 81.4003 211.553 81.3134C211.524 81.4872 211.495 81.661 211.495 81.8058L211.409 82.2114L210.192 87.4836H208.599V87.4546Z" fill="#313131"/>
<path d="M58.6024 11.0659C54.2862 11.0659 50.5204 14.0496 49.5355 18.279L46.349 32.1836H35.1673L40.0629 11.0949H28.5916L18.25 55.7636H29.6924L32.705 42.8728H39.6863L45.2482 37.4558L43.8867 42.8728L43.5391 44.3791C42.2065 50.2017 46.6097 55.7636 52.5771 55.7636H84.1522C88.4685 55.7636 92.2343 52.7799 93.2192 48.5505L101.852 11.0659H58.6024ZM82.7328 44.6399H54.6918L60.0798 22.0738H88.005L82.7328 44.6399Z" fill="white"/>
<path d="M40.0917 11.0947L34.4719 11.1527L24.0435 55.7924L29.6922 55.7634L32.6759 42.8726H39.6862L45.248 37.4556H33.8346L40.0917 11.0947Z" fill="#F3F4F8"/>
<path d="M88.005 22.0736L95.3918 16.5117H60.3405C57.6175 16.5117 55.2711 18.3657 54.6628 21.0307L47.8843 49.9698L54.6918 44.6397L60.0798 22.0736H88.005Z" fill="#F3F4F8"/>
<path d="M94.5228 42.9017L100.606 16.4539L95.3919 16.5118L87.2808 49.9699H47.8843L46.8994 53.8226C48.4637 55.0393 50.4045 55.7635 52.5771 55.7635H84.1523C88.0919 55.7635 91.5391 53.3012 92.8717 49.6802L94.5228 42.9017Z" fill="#F3F4F8"/>
<path d="M113.149 11.2107L102.895 55.9083H108.572L119.146 11.2107H113.149Z" fill="#F3F4F8"/>
<path d="M123.926 44.7555H130.009L121.753 22.7688L119.436 32.7338L123.926 44.7555Z" fill="#F3F4F8"/>
<path d="M142.175 55.8792H148.056L157.673 14.426L132.761 44.7555H139.684L146.984 35.4858L142.175 55.8792Z" fill="#F3F4F8"/>
<path d="M212.249 22.0447L219.23 16.6277H184.324C181.601 16.6277 179.255 18.5106 178.646 21.1467L170.622 55.9083H176.271L179.255 42.9017H207.527L208.744 37.6005H180.558L184.179 22.0447H212.249Z" fill="#F3F4F8"/>
<path d="M224.532 16.6565H219.23L209.932 55.8792H215.522L224.532 16.6565Z" fill="#F3F4F8"/>
</g>
<defs>
<linearGradient id="paint0_linear" x1="4.15222" y1="33.785" x2="239.986" y2="33.785" gradientUnits="userSpaceOnUse">
<stop stop-color="#F98D0F"/>
<stop offset="1" stop-color="#FF6B00"/>
</linearGradient>
<clipPath id="clip0">
<rect width="240" height="88.7001" fill="white"/>
</clipPath>
</defs>
</svg>
