<svg width="201" height="74" viewBox="0 0 201 74" fill="none" xmlns="http://www.w3.org/2000/svg">
<g clip-path="url(#clip0)">
<path d="M201 0L191.005 44.4435C189.428 51.4278 183.217 56.3821 176.036 56.3821H3.46924L13.6345 11.3103C15.1144 4.68844 21.0097 0 27.8027 0H201Z" fill="url(#paint0_linear)"/>
<path opacity="0.1" d="M129.333 9.35229H129.018L111.744 30.8853L104.248 9.32812H94.7861L86.0522 47.1015H96.3873L100.754 27.7919L103.957 37.8213H117.712L123.802 30.0878L119.799 47.1015H129.309L138.116 9.35229H137.631H129.333Z" fill="#313131"/>
<path opacity="0.1" d="M153.74 9.32812C150.125 9.32812 145.977 12.3249 145.176 15.8291L137.946 47.1015H148.306L150.877 36.2746L173.634 36.2987L170.989 47.1256H175.017H181.203L189.937 9.35229H153.74V9.32812ZM152.988 27.3327L154.977 18.8742H178.486L176.497 27.3327H152.988Z" fill="#313131"/>
<path opacity="0.1" d="M49.9767 9.25586C46.3619 9.25586 43.0382 12.2043 42.2133 15.7327L39.5446 27.3329H30.18L34.4741 9.28003H24.8426L16.0117 47.005H25.5947L28.1178 36.2506H33.9646L38.5742 31.4172L37.4825 36.2506L37.1913 37.5073C36.0753 42.3649 39.763 47.005 44.7607 47.005H71.2048C74.8197 47.005 77.9736 44.5158 78.7984 40.9874L86.198 9.25586H49.9767ZM70.0161 37.7248H46.5317L51.0442 18.8986H74.4315L70.0161 37.7248Z" fill="#313131"/>
<path d="M128.412 9.35254H128.096L111.017 30.4022L103.399 9.35254H94.762L86.1494 46.6184H95.6596L100.027 27.3088L103.787 37.3382H116.985L123.074 29.6047L119.071 46.6184H128.581L137.194 9.35254H136.709H128.412Z" fill="white"/>
<path d="M152.867 9.35254C149.252 9.35254 146.098 11.8418 145.273 15.3702L138.043 46.6425H147.529L150.101 35.8156L173.707 35.8398L171.062 46.6667H174.24H180.427L189.039 9.40087H152.867V9.35254ZM152.26 26.8496L154.25 18.3911H177.758L175.769 26.8496H152.26Z" fill="white"/>
<path d="M7.18105 67.1124H2.71708L1.67387 71.6075H6.13784L6.50175 70.085L8.0787 70.4233L7.88461 71.2692C7.73905 71.9217 7.5207 72.3567 7.22957 72.5984C6.91418 72.84 6.42897 72.9609 5.74967 72.9609H1.47978C0.800485 72.9609 0.363792 72.84 0.145446 72.5984C-0.0486401 72.3567 -0.0486401 71.9217 0.0969242 71.2692L0.97031 67.5232C1.11587 66.8949 1.33422 66.4357 1.62535 66.1941C1.94074 65.9524 2.42595 65.8315 3.10525 65.8315H7.35088C8.03018 65.8315 8.46687 65.9524 8.68522 66.1941C8.8793 66.4357 8.8793 66.8707 8.73374 67.5232L8.58817 68.1999L6.86566 68.4658L7.18105 67.1124Z" fill="white"/>
<path d="M10.6743 72.9609L11.9359 67.5474L12.324 65.8799H18.5833H20.3543L18.7046 72.985H17.0549L18.3892 67.2332H13.6584L12.324 72.985H10.6743V72.9609Z" fill="white"/>
<path d="M22.0527 72.9606L23.7025 65.8555H30.9807L30.6895 67.0638H25.0611L24.6972 68.6589H27.9723L27.6812 69.8672H24.406L23.9936 71.6314H29.6949L29.3795 72.9606H22.0527Z" fill="white"/>
<path d="M36.0512 65.8557L34.7169 71.6075H39.4477L40.7821 65.8557H42.4318L41.0975 71.6075H42.6259L42.0679 74.0001H40.5395L40.7821 72.9367H38.5986H34.5228C33.8435 72.9367 33.4068 72.8159 33.2127 72.5742C33.0187 72.3325 32.9944 71.8975 33.14 71.245L34.4015 65.8315H36.0512V65.8557Z" fill="white"/>
<path d="M46.8717 67.5232C47.0172 66.8707 47.2356 66.4357 47.5267 66.1941C47.8421 65.9524 48.3273 65.8315 49.0309 65.8315H54.2712C54.9505 65.8315 55.3872 65.9524 55.5813 66.1941C55.7754 66.4357 55.7996 66.8707 55.6541 67.5232L54.7807 71.2692C54.6351 71.9217 54.3925 72.3567 54.1014 72.5984C53.8102 72.84 53.3008 72.9609 52.6215 72.9609H47.3812C46.7019 72.9609 46.2652 72.84 46.0468 72.5984C45.8527 72.3567 45.8527 71.9217 45.9983 71.2692L46.8717 67.5232ZM47.5752 71.6075H53.0339L54.0771 67.1124H48.6184L47.5752 71.6075Z" fill="white"/>
<path d="M57.4976 72.9609L57.8129 71.6317H58.7349L59.2686 69.3841C59.5355 68.2483 60.0692 67.4024 60.8941 66.7982C61.7432 66.1941 62.8107 65.8799 64.1207 65.8799H68.706L67.3717 71.6317H68.2693L67.9539 72.9609H57.4976ZM66.7652 67.1124H63.8296C63.0775 67.1124 62.4467 67.3057 61.9373 67.6683C61.4278 68.0549 61.0881 68.6108 60.9183 69.3116L60.3846 71.5833H65.7219L66.7652 67.1124Z" fill="white"/>
<path d="M70.6958 72.9606L72.3455 65.8555H79.6237L79.3326 67.0638H73.7041L73.3402 68.6589H76.6154L76.3243 69.8672H73.0491L72.6367 71.6314H78.3622L78.0468 72.9606H70.6958Z" fill="white"/>
<path d="M87.6295 72.9609L88.3573 69.8433L83.4081 72.9609H80.6909L86.9017 69.215L82.9229 65.8799H85.3247L88.5756 68.8283L89.2549 65.8799H90.9289L90.2496 68.8283L94.8834 65.8799H97.2852L91.8023 69.215L96.242 72.9609H93.5734L90.007 69.8191L89.2792 72.9367H87.6295V72.9609Z" fill="white"/>
<path d="M98.7407 72.9609L99.0561 71.6317H99.978L100.512 69.3841C100.779 68.2483 101.312 67.4024 102.137 66.7982C102.986 66.1941 104.054 65.8799 105.364 65.8799H109.949L108.615 71.6317H109.512L109.197 72.9609H98.7407ZM108.008 67.1124H105.073C104.321 67.1124 103.69 67.3057 103.18 67.6683C102.671 68.0549 102.331 68.6108 102.161 69.3116L101.628 71.5833H106.965L108.008 67.1124Z" fill="white"/>
<path d="M111.526 72.9606L117.179 65.8555H118.78L121.231 72.9606H119.363L118.877 71.4139H114.365L113.176 72.9606H111.526ZM115.384 70.1089H118.489L117.616 67.233L115.384 70.1089Z" fill="white"/>
<path d="M130.062 67.5232C130.207 66.8707 130.426 66.4357 130.717 66.1941C131.032 65.9524 131.517 65.8315 132.221 65.8315H137.461C138.14 65.8315 138.577 65.9524 138.771 66.1941C138.965 66.4357 138.99 66.8707 138.844 67.5232L137.971 71.2692C137.825 71.9217 137.582 72.3567 137.291 72.5984C137 72.84 136.491 72.9609 135.811 72.9609H130.571C129.892 72.9609 129.455 72.84 129.237 72.5984C129.043 72.3567 129.043 71.9217 129.188 71.2692L130.062 67.5232ZM130.765 71.6075H136.224L137.267 67.1124H131.808L130.765 71.6075Z" fill="white"/>
<path d="M141.027 72.9609L142.289 67.5474L142.677 65.8799H148.936H150.707L149.058 72.985H147.408L148.742 67.2332H144.011L142.677 72.985H141.027V72.9609Z" fill="white"/>
<path d="M158.253 67.1122L156.894 72.9365H155.244L156.603 67.1122H153.328L153.619 65.8555H161.819L161.528 67.1122H158.253Z" fill="white"/>
<path d="M163.857 67.5232C164.002 66.8707 164.22 66.4357 164.512 66.1941C164.827 65.9524 165.312 65.8315 166.016 65.8315H171.256C171.935 65.8315 172.372 65.9524 172.566 66.1941C172.76 66.4357 172.784 66.8707 172.639 67.5232L171.766 71.2692C171.62 71.9217 171.377 72.3567 171.086 72.5984C170.795 72.84 170.286 72.9609 169.606 72.9609H164.366C163.687 72.9609 163.25 72.84 163.032 72.5984C162.838 72.3567 162.838 71.9217 162.983 71.2692L163.857 67.5232ZM164.56 71.6075H170.019L171.062 67.1124H165.603L164.56 71.6075Z" fill="white"/>
<path d="M174.701 72.9606L176.351 65.8555H177.685L180.039 70.1331L184.308 65.8555H185.643L183.993 72.9606H182.465L183.484 68.5622C183.508 68.4414 183.532 68.3205 183.581 68.248C183.629 68.1272 183.653 67.9822 183.726 67.813C183.653 67.8855 183.605 67.9822 183.556 68.0547C183.508 68.1272 183.459 68.1997 183.411 68.2722C183.289 68.4172 183.217 68.5139 183.168 68.5622L179.675 72.1148H179.286L177.443 68.5622C177.394 68.4655 177.346 68.3447 177.273 68.1755C177.224 68.0305 177.176 67.9097 177.176 67.8372C177.152 67.9822 177.127 68.1272 177.127 68.248L177.054 68.5864L176.036 72.9848H174.701V72.9606Z" fill="white"/>
<path d="M49.0794 9.23193C45.4645 9.23193 42.3106 11.7212 41.4858 15.2496L38.8171 26.8498H29.4524L33.5525 9.2561H23.9453L15.2842 46.5219H24.8672L27.3903 35.7675H33.2371L37.8952 31.2483L36.7549 35.7675L36.4638 37.0242C35.3478 41.8818 39.0354 46.5219 44.0331 46.5219H70.4773C74.0921 46.5219 77.246 44.0327 78.0709 40.5043L85.3006 9.23193H49.0794ZM69.2885 37.2417H45.8042L50.3166 18.4155H73.704L69.2885 37.2417Z" fill="white"/>
<path d="M33.5767 9.25586L28.8701 9.30419L20.1362 46.5459L24.8671 46.5217L27.3659 35.7673H33.237L37.8951 31.248H28.3364L33.5767 9.25586Z" fill="#F3F4F8"/>
<path d="M73.7041 18.4155L79.8906 13.7754H50.5351C48.2546 13.7754 46.2895 15.3221 45.78 17.5455L40.103 41.6885L45.8043 37.2418L50.3168 18.4155H73.7041Z" fill="#F3F4F8"/>
<path d="M79.1624 35.7917L84.2572 13.7271L79.8903 13.7754L73.0973 41.6885H40.1027L39.2778 44.9028C40.5879 45.9178 42.2134 46.522 44.0329 46.522H70.4771C73.7766 46.522 76.6636 44.4677 77.7796 41.4468L79.1624 35.7917Z" fill="#F3F4F8"/>
<path d="M94.7621 9.35254L86.1738 46.6425H90.9289L99.7841 9.35254H94.7621Z" fill="#F3F4F8"/>
<path d="M103.787 37.3385H108.882L101.968 18.9956L100.027 27.3091L103.787 37.3385Z" fill="#F3F4F8"/>
<path d="M119.071 46.6184H123.996L132.051 12.0352L111.187 37.3382H116.985L123.099 29.6047L119.071 46.6184Z" fill="#F3F4F8"/>
<path d="M177.758 18.3913L183.605 13.8721H154.371C152.09 13.8721 150.125 15.4429 149.616 17.6422L142.896 46.6428H147.626L150.125 35.7917H173.804L174.823 31.3691H151.217L154.25 18.3913H177.758Z" fill="#F3F4F8"/>
<path d="M188.045 13.896H183.605L175.817 46.6184H180.5L188.045 13.896Z" fill="#F3F4F8"/>
</g>
<defs>
<linearGradient id="paint0_linear" x1="3.47732" y1="28.1859" x2="200.988" y2="28.1859" gradientUnits="userSpaceOnUse">
<stop stop-color="#F98D0F"/>
<stop offset="1" stop-color="#FF6B00"/>
</linearGradient>
<clipPath id="clip0">
<rect width="201" height="74" fill="white"/>
</clipPath>
</defs>
</svg>
