<svg width="25" height="26" viewBox="0 0 25 26" fill="none" xmlns="http://www.w3.org/2000/svg">
<path d="M25 0.500014V20.1017C24.2691 23.2598 21.3907 25.5 18.0625 25.5H0V5.61422C0.685875 2.62 3.41813 0.5 6.56641 0.5L25 0.500014Z" fill="#EA192C"/>
<path d="M3.96172 16.9898V10.0898C4.58172 10.0298 5.45505 9.9998 6.58172 9.9998C7.54839 9.9998 8.20839 10.1565 8.56172 10.4698C8.92172 10.7831 9.10172 11.3765 9.10172 12.2498C9.10172 13.1231 8.93172 13.7198 8.59172 14.0398C8.25839 14.3531 7.65505 14.5098 6.78172 14.5098C6.34172 14.5098 5.90839 14.4831 5.48172 14.4298V16.9898H3.96172ZM5.48172 13.3398H6.55172C6.94505 13.3331 7.21172 13.2565 7.35172 13.1098C7.49839 12.9631 7.57172 12.6765 7.57172 12.2498C7.57172 11.8231 7.49839 11.5365 7.35172 11.3898C7.21172 11.2431 6.94505 11.1698 6.55172 11.1698L5.48172 11.1798V13.3398ZM10.1043 16.9898V10.0898C11.051 10.0298 11.9443 9.9998 12.7843 9.9998C13.8843 9.9998 14.6476 10.2531 15.0743 10.7598C15.5076 11.2665 15.7243 12.1931 15.7243 13.5398C15.7243 14.8865 15.5076 15.8131 15.0743 16.3198C14.6476 16.8265 13.8843 17.0798 12.7843 17.0798C11.9443 17.0798 11.051 17.0498 10.1043 16.9898ZM11.6243 11.1998V15.8698C11.7376 15.8698 11.921 15.8731 12.1743 15.8798C12.4343 15.8798 12.6376 15.8798 12.7843 15.8798C13.2976 15.8798 13.6476 15.7165 13.8343 15.3898C14.0276 15.0631 14.1243 14.4465 14.1243 13.5398C14.1243 12.6331 14.0276 12.0165 13.8343 11.6898C13.6476 11.3565 13.2976 11.1898 12.7843 11.1898L11.6243 11.1998ZM21.4212 11.2898H18.9512C18.7578 11.2898 18.6178 11.3298 18.5312 11.4098C18.4512 11.4898 18.4112 11.6198 18.4112 11.7998V12.9798H21.0512V14.0898H18.4112V16.9898H16.8812V11.4898C16.8812 11.0498 17.0178 10.7031 17.2912 10.4498C17.5712 10.1898 17.9412 10.0598 18.4012 10.0598C19.8678 10.0598 20.9012 10.0965 21.5012 10.1698L21.4212 11.2898Z" fill="white"/>
</svg>
