<svg width="376" height="139" viewBox="0 0 376 139" fill="none" xmlns="http://www.w3.org/2000/svg">
<g clip-path="url(#clip0)">
<path d="M376 0L357.302 83.4817C354.352 96.6009 342.734 105.907 329.301 105.907H6.48981L25.5054 21.2449C28.2738 8.80666 39.3019 0 52.0092 0H376Z" fill="url(#paint0_linear)"/>
<path opacity="0.1" d="M241.938 17.5678H241.348L209.035 58.0149L195.012 17.5224H177.312L160.974 88.4751H180.308L188.477 52.2043L194.467 71.0433H220.199L231.591 56.5169L224.102 88.4751H241.893L258.367 17.5678H257.459H241.938Z" fill="#313131"/>
<path opacity="0.1" d="M287.593 17.5224C280.831 17.5224 273.071 23.1514 271.573 29.7337L258.049 88.4751H277.428L282.238 68.138L324.808 68.1834L319.861 88.5205H327.395H338.967L355.305 17.5678H287.593V17.5224ZM286.187 51.3418L289.908 35.4535H333.884L330.163 51.3418H286.187Z" fill="#313131"/>
<path opacity="0.1" d="M93.4894 17.3863C86.7273 17.3863 80.5098 22.9245 78.9668 29.5522L73.9747 51.3419H56.4567L64.4896 17.4317H46.4724L29.9529 88.2935H47.8793L52.5992 68.0927H63.5365L72.1593 59.0136L70.1171 68.0927L69.5725 70.4532C67.4849 79.5777 74.3831 88.2935 83.732 88.2935H133.2C139.962 88.2935 145.862 83.6178 147.405 76.9901L161.247 17.3863H93.4894ZM130.976 70.8618H87.045L95.4863 35.499H139.236L130.976 70.8618Z" fill="#313131"/>
<path d="M240.213 17.568H239.623L207.674 57.1072L193.423 17.568H177.267L161.156 87.5673H178.946L187.115 51.2966L194.149 70.1356H218.838L230.229 55.6091L222.741 87.5673H240.531L256.642 17.568H255.735H240.213Z" fill="white"/>
<path d="M285.96 17.568C279.198 17.568 273.298 22.2437 271.755 28.8714L258.231 87.6127H275.975L280.786 67.2757L324.944 67.3211L319.997 87.6581H325.942H337.515L353.626 17.6588H285.96V17.568ZM284.825 50.4341L288.547 34.5458H332.523L328.801 50.4341H284.825Z" fill="white"/>
<path d="M13.4335 126.062H5.08294L3.13147 134.506H11.482L12.1627 131.646L15.1126 132.281L14.7496 133.87C14.4773 135.096 14.0688 135.913 13.5242 136.367C12.9342 136.821 12.0266 137.048 10.7558 137.048H2.7684C1.49767 137.048 0.680771 136.821 0.272322 136.367C-0.0907436 135.913 -0.0907436 135.096 0.181556 133.87L1.81535 126.834C2.08765 125.654 2.4961 124.791 3.0407 124.337C3.63068 123.883 4.53835 123.656 5.80908 123.656H13.7511C15.0219 123.656 15.8388 123.883 16.2472 124.337C16.6103 124.791 16.6103 125.608 16.338 126.834L16.0657 128.105L12.8435 128.604L13.4335 126.062Z" fill="#313131"/>
<path d="M19.9686 137.048L22.3285 126.879L23.0547 123.747H34.7635H38.0765L34.9905 137.093H31.9044L34.4005 126.289H25.5507L23.0547 137.093H19.9686V137.048Z" fill="#313131"/>
<path d="M41.2534 137.048L44.3395 123.702H57.9544L57.4098 125.972H46.8809L46.2002 128.968H52.3269L51.7823 131.237H45.6556L44.8841 134.551H55.5491L54.9591 137.048H41.2534Z" fill="#313131"/>
<path d="M67.4395 123.702L64.9434 134.506H73.7931L76.2892 123.702H79.3753L76.8792 134.506H79.7383L78.6945 139H75.8354L76.2892 137.003H72.2047H64.5803C63.3096 137.003 62.4927 136.776 62.1296 136.322C61.7666 135.868 61.7212 135.051 61.9935 133.825L64.3534 123.656H67.4395V123.702Z" fill="#313131"/>
<path d="M87.6804 126.834C87.9527 125.608 88.3612 124.791 88.9058 124.337C89.4957 123.883 90.4034 123.656 91.7195 123.656H101.522C102.793 123.656 103.61 123.883 103.973 124.337C104.336 124.791 104.381 125.608 104.109 126.834L102.475 133.87C102.203 135.096 101.749 135.913 101.205 136.367C100.66 136.821 99.707 137.048 98.4362 137.048H88.6335C87.3627 137.048 86.5458 136.821 86.1374 136.367C85.7743 135.913 85.7743 135.096 86.0466 133.87L87.6804 126.834ZM88.9965 134.506H99.2078L101.159 126.062H90.948L88.9965 134.506Z" fill="#313131"/>
<path d="M107.558 137.048L108.148 134.551H109.873L110.871 130.329C111.37 128.196 112.369 126.607 113.912 125.472C115.5 124.337 117.497 123.747 119.948 123.747H128.525L126.029 134.551H127.708L127.118 137.048H107.558ZM124.895 126.062H119.403C117.996 126.062 116.816 126.426 115.863 127.106C114.91 127.833 114.275 128.877 113.957 130.193L112.959 134.46H122.943L124.895 126.062Z" fill="#313131"/>
<path d="M132.247 137.048L135.333 123.702H148.948L148.403 125.972H137.874L137.193 128.968H143.32L142.776 131.237H136.649L135.877 134.551H146.588L145.998 137.048H132.247Z" fill="#313131"/>
<path d="M163.924 137.048L165.286 131.192L156.028 137.048H150.945L162.563 130.012L155.12 123.747H159.613L165.694 129.285L166.965 123.747H170.096L168.826 129.285L177.494 123.747H181.987L171.73 130.012L180.035 137.048H175.043L168.372 131.147L167.01 137.003H163.924V137.048Z" fill="#313131"/>
<path d="M184.71 137.048L185.3 134.551H187.024L188.023 130.329C188.522 128.196 189.52 126.607 191.063 125.472C192.652 124.337 194.649 123.747 197.099 123.747H205.677L203.181 134.551H204.86L204.27 137.048H184.71ZM202.046 126.062H196.555C195.148 126.062 193.968 126.426 193.015 127.106C192.062 127.833 191.426 128.877 191.109 130.193L190.11 134.46H200.095L202.046 126.062Z" fill="#313131"/>
<path d="M208.627 137.048L219.201 123.702H222.196L226.78 137.048H223.285L222.378 134.143H213.937L211.713 137.048H208.627ZM215.843 131.691H221.652L220.018 126.289L215.843 131.691Z" fill="#313131"/>
<path d="M243.299 126.834C243.572 125.608 243.98 124.791 244.525 124.337C245.115 123.883 246.022 123.656 247.339 123.656H257.141C258.412 123.656 259.229 123.883 259.592 124.337C259.955 124.791 260 125.608 259.728 126.834L258.094 133.87C257.822 135.096 257.368 135.913 256.824 136.367C256.279 136.821 255.326 137.048 254.055 137.048H244.253C242.982 137.048 242.165 136.821 241.756 136.367C241.393 135.913 241.393 135.096 241.666 133.87L243.299 126.834ZM244.616 134.506H254.827L256.778 126.062H246.567L244.616 134.506Z" fill="#313131"/>
<path d="M263.813 137.048L266.173 126.879L266.899 123.747H278.608H281.921L278.835 137.093H275.748L278.245 126.289H269.395L266.899 137.093H263.813V137.048Z" fill="#313131"/>
<path d="M296.035 126.062L293.493 137.003H290.407L292.949 126.062H286.822L287.367 123.702H302.706L302.162 126.062H296.035Z" fill="#313131"/>
<path d="M306.518 126.834C306.791 125.608 307.199 124.791 307.744 124.337C308.334 123.883 309.241 123.656 310.557 123.656H320.36C321.631 123.656 322.448 123.883 322.811 124.337C323.174 124.791 323.219 125.608 322.947 126.834L321.313 133.87C321.041 135.096 320.587 135.913 320.043 136.367C319.498 136.821 318.545 137.048 317.274 137.048H307.471C306.201 137.048 305.384 136.821 304.975 136.367C304.612 135.913 304.612 135.096 304.884 133.87L306.518 126.834ZM307.834 134.506H318.046L319.997 126.062H309.786L307.834 134.506Z" fill="#313131"/>
<path d="M326.805 137.048L329.891 123.702H332.387L336.789 131.737L344.776 123.702H347.272L344.186 137.048H341.327L343.233 128.786C343.279 128.559 343.324 128.332 343.415 128.196C343.506 127.969 343.551 127.697 343.687 127.379C343.551 127.515 343.46 127.697 343.369 127.833C343.279 127.969 343.188 128.105 343.097 128.241C342.87 128.514 342.734 128.695 342.643 128.786L336.108 135.459H335.382L331.933 128.786C331.842 128.605 331.751 128.378 331.615 128.06C331.524 127.787 331.434 127.56 331.434 127.424C331.388 127.697 331.343 127.969 331.343 128.196L331.207 128.831L329.301 137.093H326.805V137.048Z" fill="#313131"/>
<path d="M91.8103 17.341C85.0482 17.341 79.1483 22.0167 77.6053 28.6444L72.6132 50.4341H55.0952L62.765 17.3864H44.7932L28.5914 87.3858H46.5178L51.2377 67.1849H62.175L70.8886 58.696L68.7556 67.1849L68.211 69.5455C66.1234 78.6699 73.0216 87.3858 82.3706 87.3858H131.838C138.6 87.3858 144.5 82.7101 146.043 76.0824L159.567 17.341H91.8103ZM129.614 69.954H85.6835L94.1248 34.5912H137.874L129.614 69.954Z" fill="white"/>
<path d="M62.8104 17.3863L54.006 17.4771L37.6681 87.431L46.5178 87.3856L51.1923 67.1848H62.175L70.8886 58.6959H53.0076L62.8104 17.3863Z" fill="#F3F4F8"/>
<path d="M137.874 34.5911L149.447 25.8752H94.5333C90.2673 25.8752 86.5912 28.7805 85.6382 32.9569L75.0185 78.3067L85.6836 69.954L94.1248 34.5911H137.874Z" fill="#F3F4F8"/>
<path d="M148.085 67.2302L157.616 25.7844L149.447 25.8752L136.74 78.3066H75.0185L73.4755 84.3442C75.9262 86.2508 78.9669 87.3856 82.3706 87.3856H131.838C138.01 87.3856 143.411 83.5271 145.499 77.8527L148.085 67.2302Z" fill="#F3F4F8"/>
<path d="M177.267 17.568L161.201 87.6127H170.096L186.661 17.568H177.267Z" fill="#F3F4F8"/>
<path d="M194.149 70.1355H203.68L190.746 35.6806L187.115 51.2966L194.149 70.1355Z" fill="#F3F4F8"/>
<path d="M222.741 87.5672H231.954L247.021 22.6067L207.991 70.1355H218.838L230.274 55.609L222.741 87.5672Z" fill="#F3F4F8"/>
<path d="M332.523 34.5457L343.46 26.0568H288.773C284.507 26.0568 280.831 29.0075 279.878 33.1384L267.307 87.6126H276.157L280.831 67.2302H325.125L327.032 58.9229H282.874L288.547 34.5457H332.523Z" fill="#F3F4F8"/>
<path d="M351.765 26.1022H343.46L328.892 87.5673H337.651L351.765 26.1022Z" fill="#F3F4F8"/>
</g>
<defs>
<linearGradient id="paint0_linear" x1="6.50493" y1="52.9437" x2="375.978" y2="52.9437" gradientUnits="userSpaceOnUse">
<stop stop-color="#F98D0F"/>
<stop offset="1" stop-color="#FF6B00"/>
</linearGradient>
<clipPath id="clip0">
<rect width="376" height="139" fill="white"/>
</clipPath>
</defs>
</svg>
